<svg width="35" height="35" viewBox="0 0 35 35" fill="none" xmlns="http://www.w3.org/2000/svg">
<path d="M18.229 5.10413H2.18734C1.38192 5.10413 0.729004 5.75704 0.729004 6.56246V16.7708C0.729004 17.5762 1.38192 18.2291 2.18734 18.2291H18.229C19.0344 18.2291 19.6873 17.5762 19.6873 16.7708V6.56246C19.6873 5.75704 19.0344 5.10413 18.229 5.10413Z" fill="#6FABE6"/>
<path d="M19.6873 6.56246V16.0416H5.104C4.52384 16.0416 3.96744 15.8112 3.55721 15.4009C3.14697 14.9907 2.9165 14.4343 2.9165 13.8541V5.10413H18.229C18.6158 5.10413 18.9867 5.25777 19.2602 5.53126C19.5337 5.80475 19.6873 6.17569 19.6873 6.56246Z" fill="#82BCF4"/>
<path d="M34.2707 20.4166V29.8958L31.354 28.4375C29.2249 28.1968 27.7811 28.2406 26.1332 27.2125C23.0853 25.3166 22.2176 23.4937 21.1019 22.2979C19.7749 20.8395 18.7978 20.4458 15.728 18.652C15.4282 18.4786 15.1739 18.2365 14.9859 17.9456C14.7979 17.6548 14.6818 17.3234 14.6469 16.9788C14.612 16.6343 14.6594 16.2863 14.7852 15.9637C14.9111 15.641 15.1117 15.3528 15.3707 15.1229C17.0624 13.9927 17.7259 14.7437 19.6874 15.852V9.80725C24.3521 10.6912 28.5153 13.2933 31.354 17.0989C32.1951 18.3136 33.1738 19.4269 34.2707 20.4166Z" fill="#F6CCAF"/>
<path d="M34.2709 20.4166V27.3437L32.0834 26.25C29.9542 26.0093 28.5104 26.0531 26.8625 25.025C23.8146 23.1291 22.9469 21.3062 21.8313 20.1104C19.1917 17.2448 15.9396 17.1354 15.4292 15.0937C15.6645 14.8908 15.9403 14.7403 16.2383 14.6523C16.5362 14.5643 16.8495 14.5408 17.1573 14.5833C17.6313 14.6635 17.6823 14.7073 19.6875 15.8739V9.80725C24.3523 10.6912 28.5155 13.2933 31.3542 17.0989C32.1953 18.3136 33.174 19.4269 34.2709 20.4166Z" fill="#FFDEC7"/>
<path d="M23.1801 18.7614L19.3228 16.5229C19.1572 16.4255 19.0368 16.2667 18.9877 16.081C18.9385 15.8953 18.9646 15.6978 19.0603 15.5312L19.6874 15.8958V15.1666C19.9572 15.1666 19.6874 15.0645 23.9092 17.4927C24.0775 17.5894 24.2004 17.7489 24.251 17.9363C24.3016 18.1236 24.2757 18.3234 24.179 18.4916C24.0823 18.6599 23.9228 18.7828 23.7354 18.8334C23.5481 18.884 23.3483 18.8581 23.1801 18.7614Z" fill="#EDB996"/>
<path d="M18.1782 20.0739L17.2959 21.5906C17.0938 21.9374 16.7829 22.2078 16.4115 22.3598C16.04 22.5119 15.6288 22.5371 15.2415 22.4316C14.8543 22.326 14.5127 22.0956 14.2698 21.7761C14.0268 21.4566 13.8962 21.0659 13.898 20.6645C13.898 19.9864 14.1678 19.7166 15.1011 18.2291C15.3198 18.2291 15.2032 18.3677 15.7282 18.6666L18.1782 20.0739Z" fill="#F6CCAF"/>
<path d="M16.9167 19.527L16.5667 20.1323C16.4363 20.3535 16.2608 20.5448 16.0517 20.6938C15.8425 20.8428 15.6043 20.9461 15.3526 20.997C15.1009 21.0479 14.8413 21.0452 14.5907 20.9892C14.3401 20.9332 14.104 20.8251 13.8979 20.6718C13.8979 19.9427 14.175 19.702 15.1011 18.2291C15.3198 18.2291 15.2032 18.3677 15.7282 18.6666C17.0698 19.4468 17.0771 19.3666 16.9167 19.527Z" fill="#FFDEC7"/>
<path d="M21.1017 22.2979L20.81 22.8011C20.608 23.1478 20.2971 23.4182 19.9256 23.5703C19.5542 23.7224 19.1429 23.7476 18.7557 23.642C18.3685 23.5365 18.0269 23.3061 17.7839 22.9866C17.541 22.6671 17.4103 22.2764 17.4121 21.875C17.4121 21.2552 17.7038 20.8979 18.1778 20.074C19.2685 20.6487 20.2566 21.4002 21.1017 22.2979Z" fill="#F6CCAF"/>
<path d="M20.0809 21.3427C19.9505 21.564 19.775 21.7553 19.5658 21.9043C19.3567 22.0533 19.1185 22.1566 18.8668 22.2074C18.6151 22.2583 18.3555 22.2557 18.1048 22.1997C17.8542 22.1437 17.6182 22.0355 17.4121 21.8823C17.4121 21.2406 17.6965 20.9052 18.1777 20.074C18.8511 20.4353 19.4884 20.8601 20.0809 21.3427Z" fill="#FFDEC7"/>
<path d="M19.6873 8.75H0.729004V11.6667H19.6873V8.75Z" fill="#374F68"/>
<path d="M19.6873 8.75V10.2083H4.37484C3.98806 10.2083 3.61713 10.0547 3.34364 9.7812C3.07015 9.50771 2.9165 9.13677 2.9165 8.75H19.6873Z" fill="#425B72"/>
<path d="M10.2082 16.0416H3.64567C3.45228 16.0416 3.26682 15.9648 3.13007 15.828C2.99333 15.6913 2.9165 15.5058 2.9165 15.3124C2.9165 15.119 2.99333 14.9336 3.13007 14.7968C3.26682 14.6601 3.45228 14.5833 3.64567 14.5833H10.2082C10.4016 14.5833 10.587 14.6601 10.7238 14.7968C10.8605 14.9336 10.9373 15.119 10.9373 15.3124C10.9373 15.5058 10.8605 15.6913 10.7238 15.828C10.587 15.9648 10.4016 16.0416 10.2082 16.0416Z" fill="#EDEBF2"/>
</svg>
