<svg width="35" height="35" viewBox="0 0 35 35" fill="none" xmlns="http://www.w3.org/2000/svg">
<path fill-rule="evenodd" clip-rule="evenodd" d="M3.61975 0H31.3713C31.795 0 32.1796 0.236327 32.4579 0.616963C32.7363 0.997676 32.9091 1.52368 32.9091 2.10309V22.8709C32.9091 23.2778 32.8238 23.6584 32.6767 23.9809C32.6006 23.8057 32.5102 23.6396 32.4 23.4912C32.141 23.1423 31.8094 22.9162 31.3713 22.9162H3.61975C3.18167 22.9162 2.85004 23.1424 2.59103 23.4913C2.48091 23.6397 2.39041 23.8058 2.31441 23.9809C2.16725 23.6584 2.08203 23.2779 2.08203 22.8709V2.10309C2.08203 1.52368 2.25483 0.997673 2.53314 0.616963C2.8115 0.236326 3.19611 0 3.61975 0ZM14.8865 11.7785H20.1046C20.5622 11.7785 20.9777 12.0339 21.2785 12.4453C21.5793 12.8567 21.766 13.425 21.766 14.0508V19.6151V20.5002H21.1189H13.8722H13.2251V19.6151V14.0508C13.2251 13.425 13.4118 12.8567 13.7126 12.4453C14.0134 12.0339 14.4289 11.7785 14.8865 11.7785ZM17.4955 3.48068C18.2671 3.48068 18.9657 3.90849 19.4713 4.60011C19.977 5.29166 20.2898 6.24711 20.2898 7.30231C20.2898 8.35745 19.977 9.31289 19.4713 10.0045C18.9657 10.6961 18.2671 11.1239 17.4955 11.1239C16.724 11.1239 16.0254 10.6961 15.5197 10.0045C15.014 9.31289 14.7013 8.35745 14.7013 7.30231C14.7013 6.24711 15.014 5.29166 15.5197 4.60011C16.0254 3.90849 16.724 3.48068 17.4955 3.48068Z" fill="#006D77"/>
<path fill-rule="evenodd" clip-rule="evenodd" d="M33.9938 35.0001C34.1449 35.0001 34.3034 34.951 34.4434 34.8746C34.5785 34.8009 34.7166 34.6885 34.8178 34.5441C34.927 34.3884 35 34.2038 35 33.9842C35 33.8943 34.9842 33.8061 34.9599 33.7229L32.3419 24.749C32.2649 24.4852 32.164 24.2223 32.0147 24.0212C31.8334 23.777 31.6323 23.6646 31.3758 23.6646H3.62419C3.36768 23.6646 3.16651 23.777 2.98521 24.0213C2.83591 24.2224 2.73506 24.4853 2.65812 24.749L0.0400956 33.7229C0.0158272 33.8061 0 33.8941 0 33.984C0 34.2035 0.073028 34.3882 0.182264 34.544C0.283559 34.6884 0.421701 34.8009 0.556872 34.8747C0.696763 34.951 0.855146 35.0001 1.00617 35.0001H33.9938ZM13.7401 30.4723C13.3246 30.4723 12.9878 30.933 12.9878 31.5012C12.9878 32.0694 13.3246 32.5301 13.7401 32.5301H21.2599C21.6754 32.5301 22.0122 32.0694 22.0122 31.5012C22.0122 30.933 21.6754 30.4723 21.2599 30.4723H13.7401Z" fill="#FFC700"/>
</svg>
