<svg width="35" height="35" viewBox="0 0 35 35" fill="none" xmlns="http://www.w3.org/2000/svg">
<path d="M28.4375 22.9688C30.2274 22.9688 31.8145 23.8372 32.8125 25.1699V7.65625C32.8125 7.05195 32.323 6.5625 31.7188 6.5625H3.28125C2.67695 6.5625 2.1875 7.05195 2.1875 7.65625V27.3438C2.1875 27.948 2.67695 28.4375 3.28125 28.4375H22.9688C22.9688 25.422 25.422 22.9688 28.4375 22.9688Z" fill="#64C8F0"/>
<path d="M4.375 27.3438V7.65625C4.375 7.05195 4.86445 6.5625 5.46875 6.5625H3.28125C2.67695 6.5625 2.1875 7.05195 2.1875 7.65625V27.3438C2.1875 27.948 2.67695 28.4375 3.28125 28.4375H5.46875C4.86445 28.4375 4.375 27.948 4.375 27.3438Z" fill="#46AAD2"/>
<path d="M2.1875 8.75H32.8125V7.65625C32.8125 7.05195 32.323 6.5625 31.7188 6.5625H3.28125C2.67695 6.5625 2.1875 7.05195 2.1875 7.65625V8.75Z" fill="#FAB400"/>
<path d="M5.46875 6.5625H3.28125C2.67695 6.5625 2.1875 7.05195 2.1875 7.65625V8.75H4.375V7.65625C4.375 7.05195 4.86445 6.5625 5.46875 6.5625Z" fill="#DC9600"/>
<path d="M13.125 25.1562C9.50086 25.1562 6.5625 22.2179 6.5625 18.5938C6.5625 14.9696 9.50086 12.0312 13.125 12.0312C16.7491 12.0312 19.6875 14.9696 19.6875 18.5938C19.6875 22.2179 16.7491 25.1562 13.125 25.1562Z" fill="#F0F0F0"/>
<path d="M16.4062 24.0625C16.4062 22.2502 14.9373 20.7812 13.125 20.7812C11.3127 20.7812 9.84375 22.2502 9.84375 24.0625V24.2709C10.8095 24.8309 11.9284 25.1562 13.125 25.1562C14.3216 25.1562 15.4405 24.8309 16.4062 24.2709V24.0625Z" fill="#FA6450"/>
<path d="M13.125 20.7812C11.3127 20.7812 9.84375 22.2502 9.84375 24.0625V24.2709C10.5082 24.6559 11.2454 24.9255 12.0312 25.0578V24.0625C12.0312 22.6346 12.9451 21.4227 14.2188 20.9721C13.8764 20.8507 13.5089 20.7812 13.125 20.7812Z" fill="#DC4632"/>
<path d="M13.125 20.7812C11.3127 20.7812 9.84375 19.3123 9.84375 17.5C9.84375 15.6877 11.3127 14.2188 13.125 14.2188C14.9373 14.2188 16.4062 15.6877 16.4062 17.5C16.4062 19.3123 14.9373 20.7812 13.125 20.7812Z" fill="#F0C8A0"/>
<path d="M9.84375 17.5C9.84375 15.6877 11.3127 14.2188 13.125 14.2188C14.9373 14.2188 16.4062 15.6877 16.4062 17.5H9.84375Z" fill="#FAB400"/>
<path d="M12.0312 17.5C12.0312 16.0721 12.9451 14.8602 14.2188 14.4096C13.8764 14.2882 13.5089 14.2188 13.125 14.2188C11.3127 14.2188 9.84375 15.6877 9.84375 17.5C9.84375 19.3123 11.3127 20.7812 13.125 20.7812C13.5089 20.7812 13.8764 20.7118 14.2188 20.5904C12.9451 20.1398 12.0312 18.9279 12.0312 17.5Z" fill="#D2AA82"/>
<path d="M14.2188 14.4096C13.8764 14.2882 13.5089 14.2188 13.125 14.2188C11.3127 14.2188 9.84375 15.6877 9.84375 17.5H12.0312C12.0312 16.0721 12.9451 14.8602 14.2188 14.4096Z" fill="#DC9600"/>
<path d="M19.6875 4.375C19.6875 3.16695 18.708 2.1875 17.5 2.1875C16.292 2.1875 15.3125 3.16695 15.3125 4.375H13.125V8.75H21.875V4.375H19.6875ZM17.5 5.46875C16.8957 5.46875 16.4062 4.9793 16.4062 4.375C16.4062 3.7707 16.8957 3.28125 17.5 3.28125C18.1043 3.28125 18.5938 3.7707 18.5938 4.375C18.5938 4.9793 18.1043 5.46875 17.5 5.46875Z" fill="#505050"/>
<path d="M18.0469 2.26461C17.8713 2.21922 17.6898 2.1875 17.5 2.1875C16.292 2.1875 15.3125 3.16695 15.3125 4.375H16.4062C16.4062 3.35672 17.1052 2.50852 18.0469 2.26461Z" fill="#3C3C3C"/>
<path d="M14.2188 4.375H13.125V8.75H14.2188V4.375Z" fill="#3C3C3C"/>
<path d="M29.5312 13.125H21.875V14.2188H29.5312V13.125Z" fill="#505050"/>
<path d="M21.875 17.5H29.5312V16.4062H21.875V17.5Z" fill="#505050"/>
<path d="M21.875 20.7812H29.5312V19.6875H21.875V20.7812Z" fill="#505050"/>
<path d="M21.875 22.9688V24.0625H25.1699C26.0827 23.3789 27.2114 22.9688 28.4375 22.9688H21.875Z" fill="#505050"/>
<path d="M28.4375 32.8125C30.8537 32.8125 32.8125 30.8537 32.8125 28.4375C32.8125 26.0213 30.8537 24.0625 28.4375 24.0625C26.0213 24.0625 24.0625 26.0213 24.0625 28.4375C24.0625 30.8537 26.0213 32.8125 28.4375 32.8125Z" fill="#3CC8B4"/>
<path d="M25.147 28.4375C25.147 26.2052 26.8198 24.3671 28.98 24.0997C28.8017 24.0773 28.6212 24.0625 28.4375 24.0625C26.0214 24.0625 24.0625 26.0214 24.0625 28.4375C24.0625 30.8536 26.0214 32.8125 28.4375 32.8125C28.6212 32.8125 28.8017 32.7977 28.9795 32.7753C26.8198 32.5079 25.147 30.6698 25.147 28.4375Z" fill="#1EAA96"/>
<path d="M31.1719 27.3438L27.8906 30.625L25.7031 28.4375L26.7969 27.3438L27.8906 28.4375L30.0781 26.25L31.1719 27.3438Z" fill="#F0F0F0"/>
</svg>
