<svg width="35" height="35" viewBox="0 0 35 35" fill="none" xmlns="http://www.w3.org/2000/svg">
<path d="M31.7188 29.5312H3.28125C2.6775 29.5312 2.1875 29.0423 2.1875 28.4375V13.125C2.1875 10.7122 4.14969 8.75 6.5625 8.75C7.16625 8.75 7.65625 9.23891 7.65625 9.84375C7.65625 10.4486 7.16625 10.9375 6.5625 10.9375C5.35609 10.9375 4.375 11.9186 4.375 13.125V27.3438H30.625V13.125C30.625 11.9186 29.6439 10.9375 28.4375 10.9375C27.8337 10.9375 27.3438 10.4486 27.3438 9.84375C27.3438 9.23891 27.8337 8.75 28.4375 8.75C30.8503 8.75 32.8125 10.7122 32.8125 13.125V28.4375C32.8125 29.0423 32.3225 29.5312 31.7188 29.5312Z" fill="#333333"/>
<path d="M30.625 33.9062H4.375C2.56594 33.9062 1.09375 32.4341 1.09375 30.625V28.4375C1.09375 27.8327 1.58375 27.3438 2.1875 27.3438H32.8125C33.4162 27.3438 33.9062 27.8327 33.9062 28.4375V30.625C33.9062 32.4341 32.4341 33.9062 30.625 33.9062ZM3.28125 29.5312V30.625C3.28125 31.2287 3.77234 31.7188 4.375 31.7188H30.625C31.2277 31.7188 31.7188 31.2287 31.7188 30.625V29.5312H3.28125Z" fill="#333333"/>
<path d="M8.20317 7.5961C7.92973 7.5961 7.65629 7.49438 7.44411 7.28985C7.00879 6.86985 6.99676 6.17751 7.41567 5.74329C10.1205 2.94 13.7496 1.39563 17.6335 1.39563C21.3643 1.39563 24.8905 2.8361 27.5625 5.45235C27.9946 5.87563 28.0011 6.56797 27.5789 6.99891C27.1568 7.43094 26.4644 7.4386 26.0324 7.01641C23.7716 4.80266 20.79 3.58313 17.6346 3.58313C14.35 3.58313 11.2799 4.88907 8.99176 7.26141C8.7752 7.48454 8.48973 7.5961 8.20317 7.5961Z" fill="#008AD0"/>
<path d="M10.8238 10.1948C10.5503 10.1948 10.2769 10.0931 10.0647 9.88859C9.6294 9.46969 9.61737 8.77625 10.0363 8.34203C12.0269 6.27703 14.6989 5.14062 17.5591 5.14062C20.3481 5.14062 22.9721 6.22891 24.9485 8.20641C25.3761 8.63406 25.3761 9.32531 24.9485 9.75297C24.5208 10.1806 23.8296 10.1806 23.4019 9.75297C21.8389 8.18891 19.7641 7.32812 17.5602 7.32812C15.2994 7.32812 13.1863 8.22719 11.6113 9.86016C11.3958 10.0833 11.1103 10.1948 10.8238 10.1948Z" fill="#008AD0"/>
<path d="M13.4936 12.7925C13.2202 12.7925 12.9468 12.6908 12.7346 12.4862C12.3004 12.0662 12.2872 11.3739 12.7072 10.9397C13.9847 9.61515 15.6997 8.88562 17.5361 8.88562C19.3255 8.88562 21.0099 9.58453 22.2797 10.8533C22.7074 11.2809 22.7074 11.9722 22.2797 12.3998C21.8521 12.8275 21.1597 12.8275 20.7321 12.3998C19.8757 11.5445 18.7404 11.0731 17.535 11.0731C16.298 11.0731 15.1419 11.5653 14.28 12.4589C14.0668 12.6809 13.7802 12.7925 13.4936 12.7925Z" fill="#008AD0"/>
<path d="M17.5001 18.7195C15.8365 18.7195 14.4824 17.3666 14.4824 15.703C14.4824 14.0394 15.8365 12.6853 17.5001 12.6853C19.1637 12.6853 20.5177 14.0383 20.5177 15.703C20.5177 17.3666 19.1637 18.7195 17.5001 18.7195ZM17.5001 14.8739C17.0429 14.8739 16.6699 15.2469 16.6699 15.7041C16.6699 16.1612 17.0418 16.5331 17.5001 16.5331C17.9584 16.5331 18.3302 16.1612 18.3302 15.7041C18.3302 15.2469 17.9573 14.8739 17.5001 14.8739Z" fill="#008AD0"/>
</svg>
