<svg width="35" height="35" viewBox="0 0 35 35" fill="none" xmlns="http://www.w3.org/2000/svg">
<path d="M24.2789 17.1383C24.2459 17.2569 24.2157 17.3429 24.2203 17.5228C24.2301 17.8942 24.369 18.2306 24.5024 18.4687L26.6648 20.6311H19.6787L21.6823 18.3834C21.792 18.1623 21.9021 17.8486 21.9106 17.5228C21.916 17.3193 21.8765 17.2358 21.839 17.0898L24.2789 17.1383Z" fill="#EBB39E"/>
<path d="M17.2023 24.2961C17.2009 23.8281 17.2049 21.5585 17.6374 20.1648C17.7437 19.8225 17.8665 19.5625 18.0241 19.3243C18.1125 19.1905 18.5 18.6281 19.2568 18.2435C19.9601 17.8859 20.6117 17.8701 20.9246 17.883L21.5816 18.4688L23.042 19.771L24.5024 18.4688L25.1594 17.883C25.4723 17.8701 26.1239 17.8859 26.8272 18.2435C27.584 18.6281 27.9715 19.1905 28.0599 19.3243C28.2175 19.5625 28.3403 19.8225 28.4466 20.1648C28.8791 21.5585 28.8832 23.8281 28.8818 24.2961H17.2023Z" fill="#F7E07F"/>
<path d="M19.5488 24.7063C19.3223 24.7063 19.1387 24.5226 19.1387 24.2961V21.574C19.1387 21.3474 19.3223 21.1638 19.5488 21.1638C19.7754 21.1638 19.959 21.3474 19.959 21.574V24.2961C19.959 24.5226 19.7754 24.7063 19.5488 24.7063Z" fill="#EBCD6D"/>
<path d="M26.8325 24.7063C26.606 24.7063 26.4224 24.5226 26.4224 24.2961V21.574C26.4224 21.3474 26.606 21.1638 26.8325 21.1638C27.059 21.1638 27.2427 21.3474 27.2427 21.574V24.2961C27.2427 24.5226 27.059 24.7063 26.8325 24.7063Z" fill="#EBCD6D"/>
<path d="M17.7251 22.4682C18.0397 22.4682 18.2949 22.2131 18.2949 21.8983V15.5487C18.2949 15.2339 18.0397 14.9788 17.7251 14.9788H6.68745C6.37283 14.9788 6.11768 15.2339 6.11768 15.5487V21.8983C6.11768 22.2131 6.37283 22.4682 6.68745 22.4682H17.7251Z" fill="#CFD8DD"/>
<path d="M15.2152 12.9598H11.4819C11.3875 12.9598 11.311 12.8833 11.311 12.7889V10.4647C11.311 10.3703 11.3875 10.2938 11.4819 10.2938H15.2152C15.3095 10.2938 15.3861 10.3703 15.3861 10.4647V12.7889C15.3861 12.8833 15.3095 12.9598 15.2152 12.9598Z" fill="#F35232"/>
<path d="M15.0928 11.2388L16.8923 10.5551V12.6985L15.0928 12.0148V11.2388Z" fill="#F35232"/>
<path d="M13.0139 24.2961V21.7596C13.0139 21.3137 12.6524 20.9521 12.2064 20.9521C11.7605 20.9521 11.3989 21.3137 11.3989 21.7596V24.2961H13.0139Z" fill="#465A65"/>
<path d="M30.2148 24.7062H4.78516C4.55863 24.7062 4.375 24.5226 4.375 24.2961C4.375 24.0696 4.55863 23.8859 4.78516 23.8859H30.2148C30.4414 23.8859 30.625 24.0696 30.625 24.2961C30.625 24.5226 30.4414 24.7062 30.2148 24.7062Z" fill="#FFA96B"/>
<path d="M25.6745 13.5477C26.4963 13.8119 26.0719 15.1903 25.4381 15.2971C25.368 15.6264 25.2077 16.183 24.8164 16.6461C24.5974 16.9054 24.3858 17.0541 24.333 17.0905C24.2161 17.1708 23.9664 17.3392 23.5958 17.4267C23.4975 17.4499 23.1179 17.5319 22.641 17.4267C22.5485 17.4063 22.1101 17.3034 21.6742 16.9464C21.5629 16.8552 21.1483 16.499 20.9249 15.8775C20.8525 15.6763 20.8086 15.4364 20.7919 15.3131C20.1437 15.1249 19.7217 14.1655 20.4294 13.5477L20.5933 11.8262L23.155 11.1938C23.155 11.1938 24.5752 11.5527 24.6009 11.5869C24.6265 11.6211 25.6745 13.5477 25.6745 13.5477Z" fill="#F4BAA6"/>
<path d="M23.7384 12.1052C23.6839 12.195 23.5898 12.3216 23.4363 12.4174C23.3053 12.4992 23.1728 12.5325 23.0443 12.545C22.9091 12.5582 22.7727 12.5458 22.6399 12.517C22.5104 12.489 22.2477 12.4578 21.7683 12.4909C21.4898 12.5101 21.1922 12.5253 20.9407 12.6594C20.6199 12.8303 20.5062 13.1853 20.445 13.5195C20.4425 13.5331 20.4347 13.5505 20.4213 13.5475C20.4156 13.5463 20.4115 13.5415 20.408 13.5368C20.3107 13.4076 20.2889 13.1984 20.2718 13.0433C20.2175 12.5492 20.2231 12.1578 20.2698 12.0466C20.298 11.9794 20.4407 11.6513 20.7773 11.326C21.3216 10.8001 22.2179 10.5246 22.6739 10.43C23.0431 10.3534 23.4335 10.3144 23.815 10.341C24.0277 10.3558 24.2504 10.3829 24.4572 10.4352C24.6272 10.4782 24.7956 10.5597 24.8976 10.7022C25.0076 10.8556 25.0342 11.0496 25.1658 11.1903C25.3095 11.3437 25.5054 11.4353 25.6524 11.5853C25.849 11.7857 26.0446 12.1013 26.073 12.3841C26.0986 12.6389 25.9869 12.8794 25.8582 13.0918C25.8345 13.1309 25.6974 13.5721 25.6743 13.5478C25.6212 13.4916 24.9489 13.3109 24.4152 12.6576C24.2889 12.5029 24.2331 12.4359 24.1856 12.3894C24.1539 12.3584 24.056 12.2656 23.9117 12.1653C23.865 12.1328 23.7653 12.0598 23.7384 12.1052Z" fill="#784132"/>
</svg>
