<svg width="264" height="270" viewBox="0 0 264 270" fill="none" xmlns="http://www.w3.org/2000/svg">
<rect width="180" height="180" transform="translate(42)" fill="#FDFDFE"/>
<circle cx="181.745" cy="138.962" r="2.31198" fill="#006D77" stroke="#006D77" stroke-width="0.0763804"/>
<path d="M195.776 46.1303C195.776 48.4712 193.878 50.3689 191.538 50.3689C189.197 50.3689 187.299 48.4712 187.299 46.1303C187.299 43.7894 189.197 41.8917 191.538 41.8917C193.878 41.8917 195.776 43.7894 195.776 46.1303Z" fill="#006D77" stroke="#006D77" stroke-width="0.140031"/>
<circle cx="83.4299" cy="34.3795" r="6.5506" fill="#006D77" stroke="#006D77" stroke-width="0.216411"/>
<path d="M79.064 119.769C79.064 121.684 77.5114 123.237 75.596 123.237C73.6807 123.237 72.1281 121.684 72.1281 119.769C72.1281 117.854 73.6807 116.301 75.596 116.301C77.5114 116.301 79.064 117.854 79.064 119.769Z" fill="#006D77" stroke="#006D77" stroke-width="0.114571"/>
<circle cx="110.457" cy="149.929" r="2.31198" fill="#006D77" stroke="#006D77" stroke-width="0.0763804"/>
<path d="M153.524 145.621C153.524 146.259 153.007 146.777 152.368 146.777C151.73 146.777 151.212 146.259 151.212 145.621C151.212 144.982 151.73 144.465 152.368 144.465C153.007 144.465 153.524 144.982 153.524 145.621Z" fill="#006D77" stroke="#006D77" stroke-width="0.0381902"/>
<path d="M187.21 102.534C187.21 103.173 186.692 103.69 186.054 103.69C185.415 103.69 184.898 103.173 184.898 102.534C184.898 101.896 185.415 101.378 186.054 101.378C186.692 101.378 187.21 101.896 187.21 102.534Z" fill="#006D77" stroke="#006D77" stroke-width="0.0381902"/>
<path d="M143.34 30.4626C143.34 31.101 142.822 31.6185 142.184 31.6185C141.546 31.6185 141.028 31.101 141.028 30.4626C141.028 29.8241 141.546 29.3066 142.184 29.3066C142.822 29.3066 143.34 29.8241 143.34 30.4626Z" fill="#006D77" stroke="#006D77" stroke-width="0.0381902"/>
<path d="M70.4849 79.0326C70.4849 79.6711 69.9674 80.1886 69.329 80.1886C68.6905 80.1886 68.173 79.6711 68.173 79.0326C68.173 78.3942 68.6905 77.8766 69.329 77.8766C69.9674 77.8766 70.4849 78.3942 70.4849 79.0326Z" fill="#006D77" stroke="#006D77" stroke-width="0.0381902"/>
<circle cx="134.742" cy="89.6083" r="46.2395" fill="#006D77" stroke="#006D77" stroke-width="1.52761"/>
<rect x="118.271" y="73.1376" width="32.9415" height="32.9415" rx="14.5123" fill="#FFC700" stroke="#006D77" stroke-width="1.52761"/>
<path d="M141.009 85.0494L132.392 93.5713L128.475 89.6977" stroke="#006D77" stroke-width="6.98335" stroke-linecap="round" stroke-linejoin="round"/>
<path d="M43.5938 216H38.7812L33.5449 207.578L31.7539 208.863V216H27.5156V196.012H31.7539V205.158C32.0365 204.766 32.3145 204.374 32.5879 203.982C32.8613 203.59 33.1393 203.199 33.4219 202.807L38.8359 196.012H43.5391L36.5664 204.857L43.5938 216ZM52.3301 204.242L56.5 196.012H61.0664L54.4355 208.221V216H50.2246V208.357L43.5938 196.012H48.1875L52.3301 204.242ZM72.0723 199.252C71.2611 199.252 70.541 199.411 69.9121 199.73C69.2923 200.04 68.7682 200.492 68.3398 201.084C67.9206 201.676 67.6016 202.392 67.3828 203.23C67.1641 204.069 67.0547 205.012 67.0547 206.061C67.0547 207.473 67.2279 208.681 67.5742 209.684C67.9297 210.677 68.4766 211.438 69.2148 211.967C69.9531 212.486 70.9056 212.746 72.0723 212.746C72.8835 212.746 73.6947 212.655 74.5059 212.473C75.3262 212.29 76.2148 212.031 77.1719 211.693V215.248C76.2878 215.613 75.4173 215.872 74.5605 216.027C73.7038 216.191 72.7422 216.273 71.6758 216.273C69.6159 216.273 67.9206 215.85 66.5898 215.002C65.2682 214.145 64.2884 212.951 63.6504 211.42C63.0124 209.88 62.6934 208.084 62.6934 206.033C62.6934 204.52 62.8984 203.135 63.3086 201.877C63.7188 200.619 64.3203 199.53 65.1133 198.609C65.9062 197.689 66.8861 196.978 68.0527 196.477C69.2194 195.975 70.5592 195.725 72.0723 195.725C73.0658 195.725 74.0592 195.852 75.0527 196.107C76.0553 196.354 77.0124 196.695 77.9238 197.133L76.5566 200.578C75.8092 200.223 75.0573 199.913 74.3008 199.648C73.5443 199.384 72.8014 199.252 72.0723 199.252ZM97.2012 199.252C96.39 199.252 95.6699 199.411 95.041 199.73C94.4212 200.04 93.8971 200.492 93.4688 201.084C93.0495 201.676 92.7305 202.392 92.5117 203.23C92.293 204.069 92.1836 205.012 92.1836 206.061C92.1836 207.473 92.3568 208.681 92.7031 209.684C93.0586 210.677 93.6055 211.438 94.3438 211.967C95.082 212.486 96.0345 212.746 97.2012 212.746C98.0124 212.746 98.8236 212.655 99.6348 212.473C100.455 212.29 101.344 212.031 102.301 211.693V215.248C101.417 215.613 100.546 215.872 99.6895 216.027C98.8327 216.191 97.8711 216.273 96.8047 216.273C94.7448 216.273 93.0495 215.85 91.7188 215.002C90.3971 214.145 89.4173 212.951 88.7793 211.42C88.1413 209.88 87.8223 208.084 87.8223 206.033C87.8223 204.52 88.0273 203.135 88.4375 201.877C88.8477 200.619 89.4492 199.53 90.2422 198.609C91.0352 197.689 92.015 196.978 93.1816 196.477C94.3483 195.975 95.6882 195.725 97.2012 195.725C98.1947 195.725 99.1882 195.852 100.182 196.107C101.184 196.354 102.141 196.695 103.053 197.133L101.686 200.578C100.938 200.223 100.186 199.913 99.4297 199.648C98.6732 199.384 97.9303 199.252 97.2012 199.252ZM120.129 208.33C120.129 209.606 119.956 210.736 119.609 211.721C119.272 212.705 118.775 213.539 118.119 214.223C117.472 214.897 116.688 215.408 115.768 215.754C114.856 216.1 113.826 216.273 112.678 216.273C111.602 216.273 110.613 216.1 109.711 215.754C108.818 215.408 108.038 214.897 107.373 214.223C106.717 213.539 106.206 212.705 105.842 211.721C105.486 210.736 105.309 209.606 105.309 208.33C105.309 206.635 105.609 205.199 106.211 204.023C106.812 202.848 107.669 201.954 108.781 201.344C109.893 200.733 111.219 200.428 112.76 200.428C114.191 200.428 115.458 200.733 116.561 201.344C117.673 201.954 118.543 202.848 119.172 204.023C119.81 205.199 120.129 206.635 120.129 208.33ZM109.561 208.33C109.561 209.333 109.67 210.176 109.889 210.859C110.107 211.543 110.449 212.058 110.914 212.404C111.379 212.751 111.985 212.924 112.732 212.924C113.471 212.924 114.068 212.751 114.523 212.404C114.988 212.058 115.326 211.543 115.535 210.859C115.754 210.176 115.863 209.333 115.863 208.33C115.863 207.318 115.754 206.48 115.535 205.814C115.326 205.14 114.988 204.634 114.523 204.297C114.059 203.96 113.452 203.791 112.705 203.791C111.602 203.791 110.8 204.169 110.299 204.926C109.807 205.682 109.561 206.817 109.561 208.33ZM141.525 200.428C143.257 200.428 144.565 200.874 145.449 201.768C146.342 202.652 146.789 204.074 146.789 206.033V216H142.605V207.072C142.605 205.979 142.419 205.154 142.045 204.598C141.671 204.042 141.092 203.764 140.309 203.764C139.206 203.764 138.422 204.16 137.957 204.953C137.492 205.737 137.26 206.863 137.26 208.33V216H133.09V207.072C133.09 206.343 133.008 205.732 132.844 205.24C132.68 204.748 132.429 204.379 132.092 204.133C131.755 203.887 131.322 203.764 130.793 203.764C130.018 203.764 129.408 203.96 128.961 204.352C128.523 204.734 128.209 205.304 128.018 206.061C127.835 206.808 127.744 207.724 127.744 208.809V216H123.574V200.715H126.76L127.32 202.67H127.553C127.863 202.141 128.25 201.713 128.715 201.385C129.189 201.057 129.708 200.815 130.273 200.66C130.839 200.505 131.413 200.428 131.996 200.428C133.117 200.428 134.065 200.61 134.84 200.975C135.624 201.339 136.225 201.904 136.645 202.67H137.014C137.469 201.886 138.112 201.316 138.941 200.961C139.78 200.605 140.641 200.428 141.525 200.428ZM159.586 200.428C161.309 200.428 162.699 201.098 163.756 202.438C164.822 203.777 165.355 205.742 165.355 208.33C165.355 210.062 165.105 211.52 164.604 212.705C164.102 213.881 163.41 214.77 162.525 215.371C161.641 215.973 160.625 216.273 159.477 216.273C158.738 216.273 158.105 216.182 157.576 216C157.048 215.809 156.596 215.567 156.223 215.275C155.849 214.975 155.525 214.656 155.252 214.318H155.033C155.106 214.683 155.161 215.057 155.197 215.439C155.234 215.822 155.252 216.196 155.252 216.561V222.727H151.082V200.715H154.473L155.061 202.697H155.252C155.525 202.287 155.858 201.909 156.25 201.562C156.642 201.216 157.111 200.943 157.658 200.742C158.214 200.533 158.857 200.428 159.586 200.428ZM158.246 203.764C157.517 203.764 156.938 203.914 156.51 204.215C156.081 204.516 155.767 204.967 155.566 205.568C155.375 206.17 155.27 206.931 155.252 207.852V208.303C155.252 209.287 155.343 210.121 155.525 210.805C155.717 211.488 156.031 212.008 156.469 212.363C156.915 212.719 157.526 212.896 158.301 212.896C158.939 212.896 159.463 212.719 159.873 212.363C160.283 212.008 160.589 211.488 160.789 210.805C160.999 210.112 161.104 209.269 161.104 208.275C161.104 206.781 160.871 205.655 160.406 204.898C159.941 204.142 159.221 203.764 158.246 203.764ZM172.971 216H168.801V194.727H172.971V216ZM183.662 200.428C185.075 200.428 186.292 200.701 187.312 201.248C188.333 201.786 189.122 202.57 189.678 203.6C190.234 204.63 190.512 205.887 190.512 207.373V209.396H180.654C180.7 210.572 181.051 211.497 181.707 212.172C182.372 212.837 183.293 213.17 184.469 213.17C185.444 213.17 186.337 213.07 187.148 212.869C187.96 212.669 188.794 212.368 189.65 211.967V215.193C188.894 215.567 188.101 215.84 187.271 216.014C186.451 216.187 185.453 216.273 184.277 216.273C182.746 216.273 181.388 215.991 180.203 215.426C179.027 214.861 178.102 213.999 177.428 212.842C176.762 211.684 176.43 210.226 176.43 208.467C176.43 206.68 176.73 205.195 177.332 204.01C177.943 202.816 178.79 201.923 179.875 201.33C180.96 200.729 182.222 200.428 183.662 200.428ZM183.689 203.395C182.878 203.395 182.204 203.654 181.666 204.174C181.137 204.693 180.832 205.509 180.75 206.621H186.602C186.592 206.001 186.479 205.45 186.26 204.967C186.05 204.484 185.731 204.101 185.303 203.818C184.883 203.536 184.346 203.395 183.689 203.395ZM200.342 212.951C200.798 212.951 201.24 212.906 201.668 212.814C202.105 212.723 202.538 212.609 202.967 212.473V215.576C202.52 215.777 201.964 215.941 201.299 216.068C200.643 216.205 199.923 216.273 199.139 216.273C198.227 216.273 197.407 216.128 196.678 215.836C195.958 215.535 195.388 215.02 194.969 214.291C194.559 213.553 194.354 212.527 194.354 211.215V203.846H192.357V202.082L194.654 200.688L195.857 197.461H198.523V200.715H202.803V203.846H198.523V211.215C198.523 211.798 198.688 212.236 199.016 212.527C199.353 212.81 199.795 212.951 200.342 212.951ZM212.373 200.428C213.786 200.428 215.003 200.701 216.023 201.248C217.044 201.786 217.833 202.57 218.389 203.6C218.945 204.63 219.223 205.887 219.223 207.373V209.396H209.365C209.411 210.572 209.762 211.497 210.418 212.172C211.083 212.837 212.004 213.17 213.18 213.17C214.155 213.17 215.048 213.07 215.859 212.869C216.671 212.669 217.505 212.368 218.361 211.967V215.193C217.605 215.567 216.812 215.84 215.982 216.014C215.162 216.187 214.164 216.273 212.988 216.273C211.457 216.273 210.099 215.991 208.914 215.426C207.738 214.861 206.813 213.999 206.139 212.842C205.473 211.684 205.141 210.226 205.141 208.467C205.141 206.68 205.441 205.195 206.043 204.01C206.654 202.816 207.501 201.923 208.586 201.33C209.671 200.729 210.933 200.428 212.373 200.428ZM212.4 203.395C211.589 203.395 210.915 203.654 210.377 204.174C209.848 204.693 209.543 205.509 209.461 206.621H215.312C215.303 206.001 215.189 205.45 214.971 204.967C214.761 204.484 214.442 204.101 214.014 203.818C213.594 203.536 213.057 203.395 212.4 203.395ZM227.453 216.273C225.749 216.273 224.359 215.608 223.283 214.277C222.217 212.938 221.684 210.973 221.684 208.385C221.684 205.769 222.226 203.791 223.311 202.451C224.395 201.102 225.812 200.428 227.562 200.428C228.292 200.428 228.934 200.528 229.49 200.729C230.046 200.929 230.525 201.198 230.926 201.535C231.336 201.872 231.682 202.251 231.965 202.67H232.102C232.047 202.378 231.979 201.95 231.896 201.385C231.824 200.811 231.787 200.223 231.787 199.621V194.727H235.971V216H232.771L231.965 214.018H231.787C231.523 214.437 231.19 214.82 230.789 215.166C230.397 215.503 229.928 215.772 229.381 215.973C228.834 216.173 228.191 216.273 227.453 216.273ZM228.916 212.951C230.055 212.951 230.857 212.614 231.322 211.939C231.796 211.256 232.047 210.23 232.074 208.863V208.412C232.074 206.926 231.846 205.792 231.391 205.008C230.935 204.215 230.087 203.818 228.848 203.818C227.927 203.818 227.207 204.215 226.688 205.008C226.168 205.801 225.908 206.945 225.908 208.439C225.908 209.934 226.168 211.06 226.688 211.816C227.216 212.573 227.959 212.951 228.916 212.951Z" fill="#15141F"/>
<path d="M19.959 240.017L22.6182 235.006H23.8691L20.54 241.124V245H19.3779V241.179L16.042 235.006H17.3135L19.959 240.017ZM31.5322 241.24C31.5322 241.855 31.4525 242.405 31.293 242.888C31.1335 243.371 30.9033 243.779 30.6025 244.111C30.3018 244.444 29.9372 244.699 29.5088 244.877C29.085 245.05 28.6042 245.137 28.0664 245.137C27.5651 245.137 27.1048 245.05 26.6855 244.877C26.2708 244.699 25.9108 244.444 25.6055 244.111C25.3047 243.779 25.07 243.371 24.9014 242.888C24.7373 242.405 24.6553 241.855 24.6553 241.24C24.6553 240.42 24.7943 239.723 25.0723 239.148C25.3503 238.57 25.7467 238.13 26.2617 237.829C26.7812 237.524 27.3988 237.371 28.1143 237.371C28.7979 237.371 29.3949 237.524 29.9053 237.829C30.4202 238.134 30.819 238.576 31.1016 239.155C31.3887 239.729 31.5322 240.424 31.5322 241.24ZM25.8311 241.24C25.8311 241.842 25.9108 242.364 26.0703 242.806C26.2298 243.248 26.4759 243.59 26.8086 243.831C27.1413 244.073 27.5697 244.193 28.0938 244.193C28.6133 244.193 29.0394 244.073 29.3721 243.831C29.7093 243.59 29.9577 243.248 30.1172 242.806C30.2767 242.364 30.3564 241.842 30.3564 241.24C30.3564 240.643 30.2767 240.128 30.1172 239.695C29.9577 239.258 29.7116 238.921 29.3789 238.684C29.0462 238.447 28.6156 238.328 28.0869 238.328C27.3076 238.328 26.7357 238.586 26.3711 239.101C26.0111 239.616 25.8311 240.329 25.8311 241.24ZM39.6807 237.508V245H38.751L38.5869 243.947H38.5254C38.3704 244.207 38.1699 244.426 37.9238 244.604C37.6777 244.781 37.3997 244.913 37.0898 245C36.7845 245.091 36.4587 245.137 36.1123 245.137C35.5199 245.137 35.0231 245.041 34.6221 244.85C34.221 244.658 33.918 244.362 33.7129 243.961C33.5124 243.56 33.4121 243.045 33.4121 242.416V237.508H34.5605V242.334C34.5605 242.958 34.7018 243.425 34.9844 243.735C35.2669 244.041 35.6976 244.193 36.2764 244.193C36.8324 244.193 37.2744 244.089 37.6025 243.879C37.9352 243.669 38.1745 243.362 38.3203 242.956C38.4661 242.546 38.5391 242.045 38.5391 241.452V237.508H39.6807ZM48.7178 245.137C48.0433 245.137 47.4486 244.998 46.9336 244.72C46.4186 244.442 46.0176 244.018 45.7305 243.448C45.4434 242.879 45.2998 242.161 45.2998 241.295C45.2998 240.388 45.4502 239.647 45.751 239.073C46.0563 238.494 46.4756 238.066 47.0088 237.788C47.542 237.51 48.1481 237.371 48.8271 237.371C49.2008 237.371 49.5609 237.41 49.9072 237.487C50.2581 237.56 50.5452 237.654 50.7686 237.768L50.4268 238.718C50.1989 238.627 49.9346 238.545 49.6338 238.472C49.3376 238.399 49.0596 238.362 48.7998 238.362C48.2803 238.362 47.8473 238.474 47.501 238.697C47.1592 238.921 46.9017 239.249 46.7285 239.682C46.5599 240.115 46.4756 240.648 46.4756 241.281C46.4756 241.887 46.5576 242.405 46.7217 242.833C46.8903 243.261 47.1387 243.59 47.4668 243.817C47.7995 244.041 48.2142 244.152 48.7109 244.152C49.1074 244.152 49.4652 244.111 49.7842 244.029C50.1032 243.943 50.3926 243.842 50.6523 243.729V244.74C50.4017 244.868 50.1214 244.966 49.8115 245.034C49.5062 245.103 49.1416 245.137 48.7178 245.137ZM55.2324 237.385C56.1257 237.385 56.7887 237.585 57.2217 237.986C57.6546 238.387 57.8711 239.028 57.8711 239.907V245H57.0439L56.8252 243.893H56.7705C56.5609 244.166 56.3421 244.396 56.1143 244.583C55.8864 244.765 55.6221 244.904 55.3213 245C55.0251 245.091 54.6605 245.137 54.2275 245.137C53.7718 245.137 53.3662 245.057 53.0107 244.897C52.6598 244.738 52.3818 244.496 52.1768 244.173C51.9762 243.849 51.876 243.439 51.876 242.942C51.876 242.195 52.1722 241.621 52.7646 241.22C53.3571 240.819 54.2594 240.6 55.4717 240.563L56.7637 240.509V240.051C56.7637 239.404 56.6247 238.95 56.3467 238.69C56.0687 238.431 55.6768 238.301 55.1709 238.301C54.779 238.301 54.4053 238.358 54.0498 238.472C53.6943 238.586 53.3571 238.72 53.0381 238.875L52.6895 238.014C53.0267 237.84 53.4141 237.692 53.8516 237.569C54.2891 237.446 54.7493 237.385 55.2324 237.385ZM56.75 241.309L55.6084 241.356C54.6742 241.393 54.0156 241.546 53.6328 241.814C53.25 242.083 53.0586 242.464 53.0586 242.956C53.0586 243.384 53.1885 243.701 53.4482 243.906C53.708 244.111 54.0521 244.214 54.4805 244.214C55.1458 244.214 55.6904 244.029 56.1143 243.66C56.5381 243.291 56.75 242.737 56.75 241.999V241.309ZM63.7568 237.371C64.6455 237.371 65.3177 237.59 65.7734 238.027C66.2292 238.46 66.457 239.158 66.457 240.119V245H65.3359V240.194C65.3359 239.57 65.1924 239.103 64.9053 238.793C64.6227 238.483 64.1875 238.328 63.5996 238.328C62.7702 238.328 62.1868 238.563 61.8496 239.032C61.5124 239.502 61.3438 240.183 61.3438 241.076V245H60.209V237.508H61.125L61.2959 238.588H61.3574C61.5169 238.324 61.7197 238.103 61.9658 237.925C62.2119 237.743 62.4876 237.606 62.793 237.515C63.0983 237.419 63.4196 237.371 63.7568 237.371ZM77.2783 242.949C77.2783 243.428 77.1576 243.831 76.916 244.159C76.679 244.483 76.3372 244.727 75.8906 244.891C75.4486 245.055 74.9199 245.137 74.3047 245.137C73.7806 245.137 73.3271 245.096 72.9443 245.014C72.5615 244.932 72.2266 244.815 71.9395 244.665V243.619C72.2448 243.77 72.6094 243.906 73.0332 244.029C73.457 244.152 73.89 244.214 74.332 244.214C74.9792 244.214 75.4486 244.109 75.7402 243.899C76.0319 243.69 76.1777 243.405 76.1777 243.045C76.1777 242.84 76.1185 242.66 76 242.505C75.8861 242.345 75.6924 242.193 75.4189 242.047C75.1455 241.896 74.7673 241.732 74.2842 241.555C73.8057 241.372 73.391 241.192 73.04 241.015C72.6937 240.832 72.4248 240.611 72.2334 240.352C72.0465 240.092 71.9531 239.755 71.9531 239.34C71.9531 238.706 72.2083 238.221 72.7188 237.884C73.2337 237.542 73.9082 237.371 74.7422 237.371C75.1934 237.371 75.6149 237.417 76.0068 237.508C76.4033 237.594 76.7725 237.713 77.1143 237.863L76.7314 238.772C76.4215 238.64 76.0911 238.529 75.7402 238.438C75.3893 238.346 75.0316 238.301 74.667 238.301C74.1429 238.301 73.7396 238.387 73.457 238.561C73.179 238.734 73.04 238.971 73.04 239.271C73.04 239.504 73.1038 239.695 73.2314 239.846C73.3636 239.996 73.5732 240.137 73.8604 240.27C74.1475 240.402 74.5257 240.557 74.9951 240.734C75.4645 240.908 75.8701 241.088 76.2119 241.274C76.5537 241.457 76.8158 241.68 76.998 241.944C77.1849 242.204 77.2783 242.539 77.2783 242.949ZM81.5234 244.207C81.7103 244.207 81.9017 244.191 82.0977 244.159C82.2936 244.127 82.4531 244.089 82.5762 244.043V244.925C82.444 244.984 82.2594 245.034 82.0225 245.075C81.79 245.116 81.5622 245.137 81.3389 245.137C80.9424 245.137 80.5824 245.068 80.2588 244.932C79.9352 244.79 79.6755 244.553 79.4795 244.221C79.2881 243.888 79.1924 243.428 79.1924 242.84V238.396H78.126V237.843L79.1992 237.398L79.6504 235.771H80.334V237.508H82.5283V238.396H80.334V242.806C80.334 243.275 80.4411 243.626 80.6553 243.858C80.874 244.091 81.1634 244.207 81.5234 244.207ZM86.8965 237.385C87.7897 237.385 88.4528 237.585 88.8857 237.986C89.3187 238.387 89.5352 239.028 89.5352 239.907V245H88.708L88.4893 243.893H88.4346C88.2249 244.166 88.0062 244.396 87.7783 244.583C87.5505 244.765 87.2861 244.904 86.9854 245C86.6891 245.091 86.3245 245.137 85.8916 245.137C85.4359 245.137 85.0303 245.057 84.6748 244.897C84.3239 244.738 84.0459 244.496 83.8408 244.173C83.6403 243.849 83.54 243.439 83.54 242.942C83.54 242.195 83.8363 241.621 84.4287 241.22C85.0212 240.819 85.9235 240.6 87.1357 240.563L88.4277 240.509V240.051C88.4277 239.404 88.2887 238.95 88.0107 238.69C87.7327 238.431 87.3408 238.301 86.835 238.301C86.443 238.301 86.0693 238.358 85.7139 238.472C85.3584 238.586 85.0212 238.72 84.7021 238.875L84.3535 238.014C84.6908 237.84 85.0781 237.692 85.5156 237.569C85.9531 237.446 86.4134 237.385 86.8965 237.385ZM88.4141 241.309L87.2725 241.356C86.3382 241.393 85.6797 241.546 85.2969 241.814C84.9141 242.083 84.7227 242.464 84.7227 242.956C84.7227 243.384 84.8525 243.701 85.1123 243.906C85.3721 244.111 85.7161 244.214 86.1445 244.214C86.8099 244.214 87.3545 244.029 87.7783 243.66C88.2021 243.291 88.4141 242.737 88.4141 241.999V241.309ZM95.2773 237.371C95.4277 237.371 95.585 237.38 95.749 237.398C95.9131 237.412 96.0589 237.433 96.1865 237.46L96.043 238.513C95.9199 238.481 95.7832 238.456 95.6328 238.438C95.4824 238.419 95.3411 238.41 95.209 238.41C94.9082 238.41 94.6234 238.472 94.3545 238.595C94.0902 238.713 93.8577 238.886 93.6572 239.114C93.4567 239.338 93.2995 239.609 93.1855 239.928C93.0716 240.242 93.0146 240.593 93.0146 240.98V245H91.873V237.508H92.8164L92.9395 238.889H92.9873C93.1423 238.611 93.3291 238.358 93.5479 238.13C93.7666 237.897 94.0195 237.713 94.3066 237.576C94.5983 237.439 94.9219 237.371 95.2773 237.371ZM100.021 244.207C100.208 244.207 100.4 244.191 100.596 244.159C100.792 244.127 100.951 244.089 101.074 244.043V244.925C100.942 244.984 100.757 245.034 100.521 245.075C100.288 245.116 100.06 245.137 99.8369 245.137C99.4404 245.137 99.0804 245.068 98.7568 244.932C98.4333 244.79 98.1735 244.553 97.9775 244.221C97.7861 243.888 97.6904 243.428 97.6904 242.84V238.396H96.624V237.843L97.6973 237.398L98.1484 235.771H98.832V237.508H101.026V238.396H98.832V242.806C98.832 243.275 98.9391 243.626 99.1533 243.858C99.3721 244.091 99.6615 244.207 100.021 244.207ZM107.363 237.508V245H106.229V237.508H107.363ZM106.81 234.705C106.996 234.705 107.156 234.767 107.288 234.89C107.425 235.008 107.493 235.195 107.493 235.45C107.493 235.701 107.425 235.888 107.288 236.011C107.156 236.134 106.996 236.195 106.81 236.195C106.614 236.195 106.45 236.134 106.317 236.011C106.19 235.888 106.126 235.701 106.126 235.45C106.126 235.195 106.19 235.008 106.317 234.89C106.45 234.767 106.614 234.705 106.81 234.705ZM113.317 237.371C114.206 237.371 114.878 237.59 115.334 238.027C115.79 238.46 116.018 239.158 116.018 240.119V245H114.896V240.194C114.896 239.57 114.753 239.103 114.466 238.793C114.183 238.483 113.748 238.328 113.16 238.328C112.331 238.328 111.747 238.563 111.41 239.032C111.073 239.502 110.904 240.183 110.904 241.076V245H109.77V237.508H110.686L110.856 238.588H110.918C111.077 238.324 111.28 238.103 111.526 237.925C111.772 237.743 112.048 237.606 112.354 237.515C112.659 237.419 112.98 237.371 113.317 237.371ZM120.003 245L117.159 237.508H118.376L120.023 242.04C120.137 242.35 120.254 242.692 120.372 243.065C120.491 243.439 120.573 243.74 120.618 243.968H120.666C120.721 243.74 120.812 243.439 120.939 243.065C121.067 242.687 121.183 242.345 121.288 242.04L122.936 237.508H124.152L121.302 245H120.003ZM128.24 237.371C128.878 237.371 129.425 237.512 129.881 237.795C130.337 238.077 130.685 238.474 130.927 238.984C131.168 239.49 131.289 240.083 131.289 240.762V241.466H126.114C126.128 242.345 126.347 243.015 126.771 243.476C127.194 243.936 127.791 244.166 128.562 244.166C129.035 244.166 129.455 244.123 129.819 244.036C130.184 243.95 130.562 243.822 130.954 243.653V244.651C130.576 244.82 130.2 244.943 129.826 245.021C129.457 245.098 129.02 245.137 128.514 245.137C127.794 245.137 127.165 244.991 126.627 244.699C126.094 244.403 125.679 243.97 125.383 243.4C125.087 242.831 124.938 242.133 124.938 241.309C124.938 240.502 125.073 239.805 125.342 239.217C125.615 238.624 125.998 238.169 126.49 237.85C126.987 237.531 127.57 237.371 128.24 237.371ZM128.227 238.301C127.62 238.301 127.137 238.499 126.777 238.896C126.417 239.292 126.203 239.846 126.135 240.557H130.1C130.095 240.11 130.024 239.718 129.888 239.381C129.756 239.039 129.553 238.775 129.279 238.588C129.006 238.396 128.655 238.301 128.227 238.301ZM138.063 242.949C138.063 243.428 137.943 243.831 137.701 244.159C137.464 244.483 137.122 244.727 136.676 244.891C136.234 245.055 135.705 245.137 135.09 245.137C134.566 245.137 134.112 245.096 133.729 245.014C133.347 244.932 133.012 244.815 132.725 244.665V243.619C133.03 243.77 133.395 243.906 133.818 244.029C134.242 244.152 134.675 244.214 135.117 244.214C135.764 244.214 136.234 244.109 136.525 243.899C136.817 243.69 136.963 243.405 136.963 243.045C136.963 242.84 136.904 242.66 136.785 242.505C136.671 242.345 136.478 242.193 136.204 242.047C135.931 241.896 135.552 241.732 135.069 241.555C134.591 241.372 134.176 241.192 133.825 241.015C133.479 240.832 133.21 240.611 133.019 240.352C132.832 240.092 132.738 239.755 132.738 239.34C132.738 238.706 132.993 238.221 133.504 237.884C134.019 237.542 134.693 237.371 135.527 237.371C135.979 237.371 136.4 237.417 136.792 237.508C137.188 237.594 137.558 237.713 137.899 237.863L137.517 238.772C137.207 238.64 136.876 238.529 136.525 238.438C136.174 238.346 135.817 238.301 135.452 238.301C134.928 238.301 134.525 238.387 134.242 238.561C133.964 238.734 133.825 238.971 133.825 239.271C133.825 239.504 133.889 239.695 134.017 239.846C134.149 239.996 134.358 240.137 134.646 240.27C134.933 240.402 135.311 240.557 135.78 240.734C136.25 240.908 136.655 241.088 136.997 241.274C137.339 241.457 137.601 241.68 137.783 241.944C137.97 242.204 138.063 242.539 138.063 242.949ZM142.309 244.207C142.495 244.207 142.687 244.191 142.883 244.159C143.079 244.127 143.238 244.089 143.361 244.043V244.925C143.229 244.984 143.045 245.034 142.808 245.075C142.575 245.116 142.347 245.137 142.124 245.137C141.728 245.137 141.368 245.068 141.044 244.932C140.72 244.79 140.461 244.553 140.265 244.221C140.073 243.888 139.978 243.428 139.978 242.84V238.396H138.911V237.843L139.984 237.398L140.436 235.771H141.119V237.508H143.313V238.396H141.119V242.806C141.119 243.275 141.226 243.626 141.44 243.858C141.659 244.091 141.949 244.207 142.309 244.207ZM146.014 237.508V245H144.879V237.508H146.014ZM145.46 234.705C145.647 234.705 145.806 234.767 145.938 234.89C146.075 235.008 146.144 235.195 146.144 235.45C146.144 235.701 146.075 235.888 145.938 236.011C145.806 236.134 145.647 236.195 145.46 236.195C145.264 236.195 145.1 236.134 144.968 236.011C144.84 235.888 144.776 235.701 144.776 235.45C144.776 235.195 144.84 235.008 144.968 234.89C145.1 234.767 145.264 234.705 145.46 234.705ZM151.968 237.371C152.856 237.371 153.529 237.59 153.984 238.027C154.44 238.46 154.668 239.158 154.668 240.119V245H153.547V240.194C153.547 239.57 153.403 239.103 153.116 238.793C152.834 238.483 152.398 238.328 151.811 238.328C150.981 238.328 150.398 238.563 150.061 239.032C149.723 239.502 149.555 240.183 149.555 241.076V245H148.42V237.508H149.336L149.507 238.588H149.568C149.728 238.324 149.931 238.103 150.177 237.925C150.423 237.743 150.699 237.606 151.004 237.515C151.309 237.419 151.631 237.371 151.968 237.371ZM159.098 248.363C158.113 248.363 157.354 248.179 156.821 247.81C156.288 247.445 156.021 246.932 156.021 246.271C156.021 245.802 156.17 245.401 156.466 245.068C156.767 244.736 157.181 244.515 157.71 244.405C157.514 244.314 157.345 244.177 157.204 243.995C157.067 243.813 156.999 243.603 156.999 243.366C156.999 243.093 157.074 242.854 157.225 242.648C157.38 242.439 157.614 242.238 157.929 242.047C157.537 241.887 157.218 241.618 156.972 241.24C156.73 240.857 156.609 240.413 156.609 239.907C156.609 239.369 156.721 238.911 156.944 238.533C157.168 238.15 157.491 237.859 157.915 237.658C158.339 237.458 158.852 237.357 159.453 237.357C159.585 237.357 159.717 237.364 159.85 237.378C159.986 237.387 160.116 237.403 160.239 237.426C160.362 237.444 160.469 237.467 160.561 237.494H163.131V238.226L161.75 238.396C161.887 238.574 162.001 238.788 162.092 239.039C162.183 239.29 162.229 239.568 162.229 239.873C162.229 240.62 161.976 241.215 161.47 241.657C160.964 242.095 160.269 242.313 159.385 242.313C159.175 242.313 158.961 242.295 158.742 242.259C158.519 242.382 158.348 242.519 158.229 242.669C158.116 242.819 158.059 242.993 158.059 243.188C158.059 243.334 158.102 243.451 158.188 243.537C158.28 243.624 158.41 243.688 158.578 243.729C158.747 243.765 158.95 243.783 159.187 243.783H160.506C161.322 243.783 161.946 243.954 162.379 244.296C162.816 244.638 163.035 245.137 163.035 245.793C163.035 246.622 162.698 247.258 162.023 247.7C161.349 248.142 160.374 248.363 159.098 248.363ZM159.132 247.475C159.752 247.475 160.264 247.411 160.67 247.283C161.08 247.16 161.385 246.98 161.586 246.743C161.791 246.511 161.894 246.233 161.894 245.909C161.894 245.608 161.825 245.381 161.688 245.226C161.552 245.075 161.351 244.975 161.087 244.925C160.823 244.87 160.499 244.843 160.116 244.843H158.817C158.48 244.843 158.186 244.895 157.936 245C157.685 245.105 157.491 245.26 157.354 245.465C157.222 245.67 157.156 245.925 157.156 246.23C157.156 246.636 157.327 246.944 157.669 247.153C158.011 247.368 158.498 247.475 159.132 247.475ZM159.426 241.486C159.968 241.486 160.376 241.35 160.649 241.076C160.923 240.803 161.06 240.404 161.06 239.88C161.06 239.319 160.921 238.9 160.643 238.622C160.365 238.34 159.954 238.198 159.412 238.198C158.893 238.198 158.492 238.344 158.209 238.636C157.931 238.923 157.792 239.344 157.792 239.9C157.792 240.411 157.933 240.803 158.216 241.076C158.498 241.35 158.902 241.486 159.426 241.486ZM171.047 237.385C171.94 237.385 172.603 237.585 173.036 237.986C173.469 238.387 173.686 239.028 173.686 239.907V245H172.858L172.64 243.893H172.585C172.375 244.166 172.157 244.396 171.929 244.583C171.701 244.765 171.437 244.904 171.136 245C170.84 245.091 170.475 245.137 170.042 245.137C169.586 245.137 169.181 245.057 168.825 244.897C168.474 244.738 168.196 244.496 167.991 244.173C167.791 243.849 167.69 243.439 167.69 242.942C167.69 242.195 167.987 241.621 168.579 241.22C169.172 240.819 170.074 240.6 171.286 240.563L172.578 240.509V240.051C172.578 239.404 172.439 238.95 172.161 238.69C171.883 238.431 171.491 238.301 170.985 238.301C170.593 238.301 170.22 238.358 169.864 238.472C169.509 238.586 169.172 238.72 168.853 238.875L168.504 238.014C168.841 237.84 169.229 237.692 169.666 237.569C170.104 237.446 170.564 237.385 171.047 237.385ZM172.564 241.309L171.423 241.356C170.489 241.393 169.83 241.546 169.447 241.814C169.064 242.083 168.873 242.464 168.873 242.956C168.873 243.384 169.003 243.701 169.263 243.906C169.522 244.111 169.867 244.214 170.295 244.214C170.96 244.214 171.505 244.029 171.929 243.66C172.353 243.291 172.564 242.737 172.564 241.999V241.309ZM179.571 237.371C180.46 237.371 181.132 237.59 181.588 238.027C182.044 238.46 182.271 239.158 182.271 240.119V245H181.15V240.194C181.15 239.57 181.007 239.103 180.72 238.793C180.437 238.483 180.002 238.328 179.414 238.328C178.585 238.328 178.001 238.563 177.664 239.032C177.327 239.502 177.158 240.183 177.158 241.076V245H176.023V237.508H176.939L177.11 238.588H177.172C177.331 238.324 177.534 238.103 177.78 237.925C178.026 237.743 178.302 237.606 178.607 237.515C178.913 237.419 179.234 237.371 179.571 237.371ZM187.275 245.137C186.327 245.137 185.576 244.813 185.02 244.166C184.468 243.519 184.192 242.557 184.192 241.281C184.192 239.992 184.475 239.019 185.04 238.362C185.605 237.701 186.357 237.371 187.296 237.371C187.692 237.371 188.039 237.424 188.335 237.528C188.631 237.633 188.886 237.774 189.101 237.952C189.315 238.125 189.495 238.324 189.641 238.547H189.723C189.704 238.406 189.686 238.212 189.668 237.966C189.65 237.72 189.641 237.519 189.641 237.364V234.363H190.775V245H189.859L189.688 243.934H189.641C189.499 244.157 189.319 244.36 189.101 244.542C188.886 244.724 188.629 244.87 188.328 244.979C188.032 245.084 187.681 245.137 187.275 245.137ZM187.453 244.193C188.255 244.193 188.823 243.965 189.155 243.51C189.488 243.054 189.654 242.377 189.654 241.479V241.274C189.654 240.322 189.495 239.59 189.176 239.08C188.861 238.57 188.287 238.314 187.453 238.314C186.756 238.314 186.234 238.583 185.888 239.121C185.541 239.654 185.368 240.383 185.368 241.309C185.368 242.229 185.539 242.94 185.881 243.441C186.227 243.943 186.751 244.193 187.453 244.193ZM198.91 248.363C197.926 248.363 197.167 248.179 196.634 247.81C196.101 247.445 195.834 246.932 195.834 246.271C195.834 245.802 195.982 245.401 196.278 245.068C196.579 244.736 196.994 244.515 197.522 244.405C197.326 244.314 197.158 244.177 197.017 243.995C196.88 243.813 196.812 243.603 196.812 243.366C196.812 243.093 196.887 242.854 197.037 242.648C197.192 242.439 197.427 242.238 197.741 242.047C197.349 241.887 197.03 241.618 196.784 241.24C196.543 240.857 196.422 240.413 196.422 239.907C196.422 239.369 196.534 238.911 196.757 238.533C196.98 238.15 197.304 237.859 197.728 237.658C198.151 237.458 198.664 237.357 199.266 237.357C199.398 237.357 199.53 237.364 199.662 237.378C199.799 237.387 199.929 237.403 200.052 237.426C200.175 237.444 200.282 237.467 200.373 237.494H202.943V238.226L201.562 238.396C201.699 238.574 201.813 238.788 201.904 239.039C201.995 239.29 202.041 239.568 202.041 239.873C202.041 240.62 201.788 241.215 201.282 241.657C200.776 242.095 200.081 242.313 199.197 242.313C198.988 242.313 198.773 242.295 198.555 242.259C198.331 242.382 198.16 242.519 198.042 242.669C197.928 242.819 197.871 242.993 197.871 243.188C197.871 243.334 197.914 243.451 198.001 243.537C198.092 243.624 198.222 243.688 198.391 243.729C198.559 243.765 198.762 243.783 198.999 243.783H200.318C201.134 243.783 201.758 243.954 202.191 244.296C202.629 244.638 202.848 245.137 202.848 245.793C202.848 246.622 202.51 247.258 201.836 247.7C201.161 248.142 200.186 248.363 198.91 248.363ZM198.944 247.475C199.564 247.475 200.077 247.411 200.482 247.283C200.893 247.16 201.198 246.98 201.398 246.743C201.604 246.511 201.706 246.233 201.706 245.909C201.706 245.608 201.638 245.381 201.501 245.226C201.364 245.075 201.164 244.975 200.899 244.925C200.635 244.87 200.312 244.843 199.929 244.843H198.63C198.293 244.843 197.999 244.895 197.748 245C197.497 245.105 197.304 245.26 197.167 245.465C197.035 245.67 196.969 245.925 196.969 246.23C196.969 246.636 197.14 246.944 197.481 247.153C197.823 247.368 198.311 247.475 198.944 247.475ZM199.238 241.486C199.781 241.486 200.188 241.35 200.462 241.076C200.735 240.803 200.872 240.404 200.872 239.88C200.872 239.319 200.733 238.9 200.455 238.622C200.177 238.34 199.767 238.198 199.225 238.198C198.705 238.198 198.304 238.344 198.021 238.636C197.743 238.923 197.604 239.344 197.604 239.9C197.604 240.411 197.746 240.803 198.028 241.076C198.311 241.35 198.714 241.486 199.238 241.486ZM207.824 237.371C207.975 237.371 208.132 237.38 208.296 237.398C208.46 237.412 208.606 237.433 208.733 237.46L208.59 238.513C208.467 238.481 208.33 238.456 208.18 238.438C208.029 238.419 207.888 238.41 207.756 238.41C207.455 238.41 207.17 238.472 206.901 238.595C206.637 238.713 206.405 238.886 206.204 239.114C206.004 239.338 205.846 239.609 205.732 239.928C205.618 240.242 205.562 240.593 205.562 240.98V245H204.42V237.508H205.363L205.486 238.889H205.534C205.689 238.611 205.876 238.358 206.095 238.13C206.313 237.897 206.566 237.713 206.854 237.576C207.145 237.439 207.469 237.371 207.824 237.371ZM216.608 241.24C216.608 241.855 216.529 242.405 216.369 242.888C216.21 243.371 215.979 243.779 215.679 244.111C215.378 244.444 215.013 244.699 214.585 244.877C214.161 245.05 213.68 245.137 213.143 245.137C212.641 245.137 212.181 245.05 211.762 244.877C211.347 244.699 210.987 244.444 210.682 244.111C210.381 243.779 210.146 243.371 209.978 242.888C209.813 242.405 209.731 241.855 209.731 241.24C209.731 240.42 209.87 239.723 210.148 239.148C210.426 238.57 210.823 238.13 211.338 237.829C211.857 237.524 212.475 237.371 213.19 237.371C213.874 237.371 214.471 237.524 214.981 237.829C215.496 238.134 215.895 238.576 216.178 239.155C216.465 239.729 216.608 240.424 216.608 241.24ZM210.907 241.24C210.907 241.842 210.987 242.364 211.146 242.806C211.306 243.248 211.552 243.59 211.885 243.831C212.217 244.073 212.646 244.193 213.17 244.193C213.689 244.193 214.116 244.073 214.448 243.831C214.785 243.59 215.034 243.248 215.193 242.806C215.353 242.364 215.433 241.842 215.433 241.24C215.433 240.643 215.353 240.128 215.193 239.695C215.034 239.258 214.788 238.921 214.455 238.684C214.122 238.447 213.692 238.328 213.163 238.328C212.384 238.328 211.812 238.586 211.447 239.101C211.087 239.616 210.907 240.329 210.907 241.24ZM224.668 244.986L223.335 240.625C223.276 240.438 223.219 240.256 223.164 240.078C223.114 239.896 223.066 239.723 223.021 239.559C222.979 239.39 222.941 239.235 222.904 239.094C222.872 238.948 222.845 238.823 222.822 238.718H222.774C222.756 238.823 222.731 238.948 222.699 239.094C222.667 239.235 222.629 239.39 222.583 239.559C222.542 239.727 222.496 239.905 222.446 240.092C222.396 240.274 222.339 240.459 222.275 240.646L220.881 244.986H219.603L217.538 237.494H218.714L219.794 241.63C219.867 241.903 219.935 242.174 219.999 242.443C220.067 242.708 220.124 242.958 220.17 243.195C220.22 243.428 220.257 243.631 220.279 243.804H220.334C220.361 243.69 220.391 243.553 220.423 243.394C220.459 243.234 220.498 243.065 220.539 242.888C220.585 242.705 220.632 242.525 220.683 242.348C220.733 242.165 220.783 241.994 220.833 241.835L222.214 237.494H223.438L224.771 241.828C224.839 242.047 224.905 242.275 224.969 242.512C225.037 242.749 225.099 242.979 225.153 243.202C225.208 243.421 225.247 243.617 225.27 243.79H225.324C225.342 243.635 225.377 243.444 225.427 243.216C225.477 242.988 225.534 242.737 225.598 242.464C225.666 242.19 225.737 241.912 225.81 241.63L226.903 237.494H228.059L225.987 244.986H224.668ZM230.561 237.508V245H229.426V237.508H230.561ZM230.007 234.705C230.194 234.705 230.353 234.767 230.485 234.89C230.622 235.008 230.69 235.195 230.69 235.45C230.69 235.701 230.622 235.888 230.485 236.011C230.353 236.134 230.194 236.195 230.007 236.195C229.811 236.195 229.647 236.134 229.515 236.011C229.387 235.888 229.323 235.701 229.323 235.45C229.323 235.195 229.387 235.008 229.515 234.89C229.647 234.767 229.811 234.705 230.007 234.705ZM236.515 237.371C237.403 237.371 238.076 237.59 238.531 238.027C238.987 238.46 239.215 239.158 239.215 240.119V245H238.094V240.194C238.094 239.57 237.95 239.103 237.663 238.793C237.381 238.483 236.945 238.328 236.357 238.328C235.528 238.328 234.945 238.563 234.607 239.032C234.27 239.502 234.102 240.183 234.102 241.076V245H232.967V237.508H233.883L234.054 238.588H234.115C234.275 238.324 234.478 238.103 234.724 237.925C234.97 237.743 235.245 237.606 235.551 237.515C235.856 237.419 236.177 237.371 236.515 237.371ZM243.645 248.363C242.66 248.363 241.901 248.179 241.368 247.81C240.835 247.445 240.568 246.932 240.568 246.271C240.568 245.802 240.716 245.401 241.013 245.068C241.313 244.736 241.728 244.515 242.257 244.405C242.061 244.314 241.892 244.177 241.751 243.995C241.614 243.813 241.546 243.603 241.546 243.366C241.546 243.093 241.621 242.854 241.771 242.648C241.926 242.439 242.161 242.238 242.476 242.047C242.084 241.887 241.765 241.618 241.519 241.24C241.277 240.857 241.156 240.413 241.156 239.907C241.156 239.369 241.268 238.911 241.491 238.533C241.715 238.15 242.038 237.859 242.462 237.658C242.886 237.458 243.398 237.357 244 237.357C244.132 237.357 244.264 237.364 244.396 237.378C244.533 237.387 244.663 237.403 244.786 237.426C244.909 237.444 245.016 237.467 245.107 237.494H247.678V238.226L246.297 238.396C246.434 238.574 246.548 238.788 246.639 239.039C246.73 239.29 246.775 239.568 246.775 239.873C246.775 240.62 246.522 241.215 246.017 241.657C245.511 242.095 244.816 242.313 243.932 242.313C243.722 242.313 243.508 242.295 243.289 242.259C243.066 242.382 242.895 242.519 242.776 242.669C242.662 242.819 242.605 242.993 242.605 243.188C242.605 243.334 242.649 243.451 242.735 243.537C242.826 243.624 242.956 243.688 243.125 243.729C243.294 243.765 243.496 243.783 243.733 243.783H245.053C245.868 243.783 246.493 243.954 246.926 244.296C247.363 244.638 247.582 245.137 247.582 245.793C247.582 246.622 247.245 247.258 246.57 247.7C245.896 248.142 244.921 248.363 243.645 248.363ZM243.679 247.475C244.299 247.475 244.811 247.411 245.217 247.283C245.627 247.16 245.932 246.98 246.133 246.743C246.338 246.511 246.44 246.233 246.44 245.909C246.44 245.608 246.372 245.381 246.235 245.226C246.099 245.075 245.898 244.975 245.634 244.925C245.369 244.87 245.046 244.843 244.663 244.843H243.364C243.027 244.843 242.733 244.895 242.482 245C242.232 245.105 242.038 245.26 241.901 245.465C241.769 245.67 241.703 245.925 241.703 246.23C241.703 246.636 241.874 246.944 242.216 247.153C242.558 247.368 243.045 247.475 243.679 247.475ZM243.973 241.486C244.515 241.486 244.923 241.35 245.196 241.076C245.47 240.803 245.606 240.404 245.606 239.88C245.606 239.319 245.467 238.9 245.189 238.622C244.911 238.34 244.501 238.198 243.959 238.198C243.439 238.198 243.038 238.344 242.756 238.636C242.478 238.923 242.339 239.344 242.339 239.9C242.339 240.411 242.48 240.803 242.763 241.076C243.045 241.35 243.449 241.486 243.973 241.486ZM83.4922 257.508H84.709L86.3633 261.855C86.459 262.111 86.5479 262.357 86.6299 262.594C86.7119 262.826 86.7848 263.049 86.8486 263.264C86.9124 263.478 86.9626 263.685 86.999 263.886H87.0469C87.1107 263.658 87.2018 263.359 87.3203 262.99C87.4388 262.617 87.5664 262.236 87.7031 261.849L89.2686 257.508H90.4922L87.2314 266.101C87.0583 266.561 86.8555 266.962 86.623 267.304C86.3952 267.646 86.1172 267.908 85.7891 268.09C85.4609 268.277 85.0645 268.37 84.5996 268.37C84.3854 268.37 84.1963 268.356 84.0322 268.329C83.8682 268.306 83.7269 268.279 83.6084 268.247V267.338C83.7087 267.361 83.8294 267.381 83.9707 267.399C84.1165 267.418 84.2669 267.427 84.4219 267.427C84.7044 267.427 84.9482 267.372 85.1533 267.263C85.363 267.158 85.543 267.003 85.6934 266.798C85.8438 266.593 85.9736 266.349 86.083 266.066L86.4932 265.014L83.4922 257.508ZM98.1484 261.24C98.1484 261.855 98.0687 262.405 97.9092 262.888C97.7497 263.371 97.5195 263.779 97.2188 264.111C96.918 264.444 96.5534 264.699 96.125 264.877C95.7012 265.05 95.2204 265.137 94.6826 265.137C94.1813 265.137 93.721 265.05 93.3018 264.877C92.887 264.699 92.527 264.444 92.2217 264.111C91.9209 263.779 91.6862 263.371 91.5176 262.888C91.3535 262.405 91.2715 261.855 91.2715 261.24C91.2715 260.42 91.4105 259.723 91.6885 259.148C91.9665 258.57 92.363 258.13 92.8779 257.829C93.3975 257.524 94.015 257.371 94.7305 257.371C95.4141 257.371 96.0111 257.524 96.5215 257.829C97.0365 258.134 97.4352 258.576 97.7178 259.155C98.0049 259.729 98.1484 260.424 98.1484 261.24ZM92.4473 261.24C92.4473 261.842 92.527 262.364 92.6865 262.806C92.846 263.248 93.0921 263.59 93.4248 263.831C93.7575 264.073 94.1859 264.193 94.71 264.193C95.2295 264.193 95.6556 264.073 95.9883 263.831C96.3255 263.59 96.5739 263.248 96.7334 262.806C96.8929 262.364 96.9727 261.842 96.9727 261.24C96.9727 260.643 96.8929 260.128 96.7334 259.695C96.5739 259.258 96.3278 258.921 95.9951 258.684C95.6624 258.447 95.2318 258.328 94.7031 258.328C93.9238 258.328 93.3519 258.586 92.9873 259.101C92.6273 259.616 92.4473 260.329 92.4473 261.24ZM106.297 257.508V265H105.367L105.203 263.947H105.142C104.987 264.207 104.786 264.426 104.54 264.604C104.294 264.781 104.016 264.913 103.706 265C103.401 265.091 103.075 265.137 102.729 265.137C102.136 265.137 101.639 265.041 101.238 264.85C100.837 264.658 100.534 264.362 100.329 263.961C100.129 263.56 100.028 263.045 100.028 262.416V257.508H101.177V262.334C101.177 262.958 101.318 263.425 101.601 263.735C101.883 264.041 102.314 264.193 102.893 264.193C103.449 264.193 103.891 264.089 104.219 263.879C104.551 263.669 104.791 263.362 104.937 262.956C105.082 262.546 105.155 262.045 105.155 261.452V257.508H106.297ZM112.101 257.371C112.251 257.371 112.408 257.38 112.572 257.398C112.736 257.412 112.882 257.433 113.01 257.46L112.866 258.513C112.743 258.481 112.606 258.456 112.456 258.438C112.306 258.419 112.164 258.41 112.032 258.41C111.731 258.41 111.447 258.472 111.178 258.595C110.913 258.713 110.681 258.886 110.48 259.114C110.28 259.338 110.123 259.609 110.009 259.928C109.895 260.242 109.838 260.593 109.838 260.98V265H108.696V257.508H109.64L109.763 258.889H109.811C109.965 258.611 110.152 258.358 110.371 258.13C110.59 257.897 110.843 257.713 111.13 257.576C111.422 257.439 111.745 257.371 112.101 257.371ZM121.609 257.371C122.498 257.371 123.17 257.59 123.626 258.027C124.082 258.46 124.31 259.158 124.31 260.119V265H123.188V260.194C123.188 259.57 123.045 259.103 122.758 258.793C122.475 258.483 122.04 258.328 121.452 258.328C120.623 258.328 120.039 258.563 119.702 259.032C119.365 259.502 119.196 260.183 119.196 261.076V265H118.062V257.508H118.978L119.148 258.588H119.21C119.369 258.324 119.572 258.103 119.818 257.925C120.064 257.743 120.34 257.606 120.646 257.515C120.951 257.419 121.272 257.371 121.609 257.371ZM129.532 257.371C130.17 257.371 130.717 257.512 131.173 257.795C131.629 258.077 131.977 258.474 132.219 258.984C132.46 259.49 132.581 260.083 132.581 260.762V261.466H127.406C127.42 262.345 127.639 263.015 128.062 263.476C128.486 263.936 129.083 264.166 129.854 264.166C130.327 264.166 130.747 264.123 131.111 264.036C131.476 263.95 131.854 263.822 132.246 263.653V264.651C131.868 264.82 131.492 264.943 131.118 265.021C130.749 265.098 130.312 265.137 129.806 265.137C129.086 265.137 128.457 264.991 127.919 264.699C127.386 264.403 126.971 263.97 126.675 263.4C126.379 262.831 126.23 262.133 126.23 261.309C126.23 260.502 126.365 259.805 126.634 259.217C126.907 258.624 127.29 258.169 127.782 257.85C128.279 257.531 128.862 257.371 129.532 257.371ZM129.519 258.301C128.912 258.301 128.429 258.499 128.069 258.896C127.709 259.292 127.495 259.846 127.427 260.557H131.392C131.387 260.11 131.316 259.718 131.18 259.381C131.048 259.039 130.845 258.775 130.571 258.588C130.298 258.396 129.947 258.301 129.519 258.301ZM136.929 264.207C137.116 264.207 137.307 264.191 137.503 264.159C137.699 264.127 137.858 264.089 137.981 264.043V264.925C137.849 264.984 137.665 265.034 137.428 265.075C137.195 265.116 136.967 265.137 136.744 265.137C136.348 265.137 135.988 265.068 135.664 264.932C135.34 264.79 135.081 264.553 134.885 264.221C134.693 263.888 134.598 263.428 134.598 262.84V258.396H133.531V257.843L134.604 257.398L135.056 255.771H135.739V257.508H137.934V258.396H135.739V262.806C135.739 263.275 135.846 263.626 136.061 263.858C136.279 264.091 136.569 264.207 136.929 264.207ZM149.233 264.986L147.9 260.625C147.841 260.438 147.784 260.256 147.729 260.078C147.679 259.896 147.632 259.723 147.586 259.559C147.545 259.39 147.506 259.235 147.47 259.094C147.438 258.948 147.41 258.823 147.388 258.718H147.34C147.322 258.823 147.297 258.948 147.265 259.094C147.233 259.235 147.194 259.39 147.148 259.559C147.107 259.727 147.062 259.905 147.012 260.092C146.962 260.274 146.905 260.459 146.841 260.646L145.446 264.986H144.168L142.104 257.494H143.279L144.359 261.63C144.432 261.903 144.501 262.174 144.564 262.443C144.633 262.708 144.69 262.958 144.735 263.195C144.785 263.428 144.822 263.631 144.845 263.804H144.899C144.927 263.69 144.956 263.553 144.988 263.394C145.025 263.234 145.063 263.065 145.104 262.888C145.15 262.705 145.198 262.525 145.248 262.348C145.298 262.165 145.348 261.994 145.398 261.835L146.779 257.494H148.003L149.336 261.828C149.404 262.047 149.47 262.275 149.534 262.512C149.603 262.749 149.664 262.979 149.719 263.202C149.773 263.421 149.812 263.617 149.835 263.79H149.89C149.908 263.635 149.942 263.444 149.992 263.216C150.042 262.988 150.099 262.737 150.163 262.464C150.231 262.19 150.302 261.912 150.375 261.63L151.469 257.494H152.624L150.553 264.986H149.233ZM160.451 261.24C160.451 261.855 160.371 262.405 160.212 262.888C160.052 263.371 159.822 263.779 159.521 264.111C159.221 264.444 158.856 264.699 158.428 264.877C158.004 265.05 157.523 265.137 156.985 265.137C156.484 265.137 156.024 265.05 155.604 264.877C155.19 264.699 154.83 264.444 154.524 264.111C154.224 263.779 153.989 263.371 153.82 262.888C153.656 262.405 153.574 261.855 153.574 261.24C153.574 260.42 153.713 259.723 153.991 259.148C154.269 258.57 154.666 258.13 155.181 257.829C155.7 257.524 156.318 257.371 157.033 257.371C157.717 257.371 158.314 257.524 158.824 257.829C159.339 258.134 159.738 258.576 160.021 259.155C160.308 259.729 160.451 260.424 160.451 261.24ZM154.75 261.24C154.75 261.842 154.83 262.364 154.989 262.806C155.149 263.248 155.395 263.59 155.728 263.831C156.06 264.073 156.489 264.193 157.013 264.193C157.532 264.193 157.958 264.073 158.291 263.831C158.628 263.59 158.877 263.248 159.036 262.806C159.196 262.364 159.275 261.842 159.275 261.24C159.275 260.643 159.196 260.128 159.036 259.695C158.877 259.258 158.631 258.921 158.298 258.684C157.965 258.447 157.535 258.328 157.006 258.328C156.227 258.328 155.655 258.586 155.29 259.101C154.93 259.616 154.75 260.329 154.75 261.24ZM165.817 257.371C165.968 257.371 166.125 257.38 166.289 257.398C166.453 257.412 166.599 257.433 166.727 257.46L166.583 258.513C166.46 258.481 166.323 258.456 166.173 258.438C166.022 258.419 165.881 258.41 165.749 258.41C165.448 258.41 165.163 258.472 164.895 258.595C164.63 258.713 164.398 258.886 164.197 259.114C163.997 259.338 163.84 259.609 163.726 259.928C163.612 260.242 163.555 260.593 163.555 260.98V265H162.413V257.508H163.356L163.479 258.889H163.527C163.682 258.611 163.869 258.358 164.088 258.13C164.307 257.897 164.56 257.713 164.847 257.576C165.138 257.439 165.462 257.371 165.817 257.371ZM170.562 264.207C170.748 264.207 170.94 264.191 171.136 264.159C171.332 264.127 171.491 264.089 171.614 264.043V264.925C171.482 264.984 171.298 265.034 171.061 265.075C170.828 265.116 170.6 265.137 170.377 265.137C169.98 265.137 169.62 265.068 169.297 264.932C168.973 264.79 168.714 264.553 168.518 264.221C168.326 263.888 168.23 263.428 168.23 262.84V258.396H167.164V257.843L168.237 257.398L168.688 255.771H169.372V257.508H171.566V258.396H169.372V262.806C169.372 263.275 169.479 263.626 169.693 263.858C169.912 264.091 170.201 264.207 170.562 264.207ZM174.267 254.363V257.542C174.267 257.724 174.262 257.909 174.253 258.096C174.244 258.278 174.228 258.447 174.205 258.602H174.28C174.435 258.337 174.631 258.116 174.868 257.938C175.11 257.756 175.383 257.619 175.688 257.528C175.994 257.433 176.317 257.385 176.659 257.385C177.261 257.385 177.762 257.48 178.163 257.672C178.569 257.863 178.872 258.16 179.072 258.561C179.277 258.962 179.38 259.481 179.38 260.119V265H178.259V260.194C178.259 259.57 178.115 259.103 177.828 258.793C177.546 258.483 177.11 258.328 176.522 258.328C175.966 258.328 175.522 258.435 175.189 258.649C174.861 258.859 174.624 259.169 174.479 259.579C174.337 259.989 174.267 260.491 174.267 261.083V265H173.132V254.363H174.267Z" fill="#15141F"/>
</svg>
